# AST/ASF file generated using VICON BodyLanguage
# -----------------------------------------------
:version 1.10
:name VICON
:units
  mass 1.0
  length 0.45
  angle deg
:documentation
   .ast/.asf automatically generated from VICON data using
   VICON BodyBuilder and BodyLanguage model FoxedUp or BRILLIANT.MOD
:root
   order TX TY TZ RX RY RZ
   axis XYZ
   position 0 0 0  
   orientation 0 0 0 
:bonedata
  begin
     id 1 
     name lhipjoint
     direction 0.722297 -0.617336 0.311742 
     length 2.6635 
     axis 0 0 0  XYZ
  end
  begin
     id 2 
     name lfemur
     direction 0.34202 -0.939693 0  
     length 7.39349  
     axis 0 0 20  XYZ
    dof rx ry rz
    limits (-160.0 20.0)
           (-70.0 70.0)
           (-60.0 70.0)
  end
  begin
     id 3 
     name ltibia
     direction 0.34202 -0.939693 0   
     length 7.36294   
     axis 0 0 20   XYZ
    dof rx
    limits (-10.0 170.0)
  end
  begin
     id 4 
     name lfoot
     direction 0.104879 -0.288152 0.951824   
     length 2.16981   
     axis -90 7.62852e-016 20   XYZ
    dof rx rz
    limits (-45.0 90.0)
           (-70.0 20.0)
  end
  begin
     id 5 
     name ltoes
     direction 1.53586e-011 -4.21895e-011 1   
     length 1.08218   
     axis -90 7.62852e-016 20   XYZ
    dof rx
    limits (-90.0 20.0)
  end
  begin
     id 6 
     name rhipjoint
     direction -0.75102 -0.589393 0.297631   
     length 2.78977  
     axis 0 0 0  XYZ 
  end
  begin
     id 7 
     name rfemur
     direction -0.34202 -0.939693 0   
     length 7.46076   
     axis 0 0 -20   XYZ
    dof rx ry rz
    limits (-160.0 20.0)
           (-70.0 70.0)
           (-70.0 60.0)
  end
  begin
     id 8 
     name rtibia
     direction -0.34202 -0.939693 0   
     length 7.31726   
     axis 0 0 -20   XYZ
    dof rx
    limits (-10.0 170.0)
 end
 begin
     id 9 
     name rfoot
     direction -0.107991 -0.296704 0.948844   
     length 2.09388  
     axis -90 -7.62852e-016 -20   XYZ
    dof rx rz
    limits (-45.0 90.0)
           (-20.0 70.0)
  end
  begin
     id 10 
     name rtoes
     direction -1.53559e-011 -4.21911e-011 1   
     length 1.04433   
     axis -90 -7.62852e-016 -20   XYZ
    dof rx
    limits (-90.0 20.0)
  end
  begin
     id 11 
     name lowerback
     direction 0.0165164 0.98272 0.184358   
     length 1.71896   
     axis 0 0 0   XYZ
    dof rx ry rz
    limits (-20.0 45.0)
           (-30.0 30.0)
           (-30.0 30.0)
  end
  begin
     id 12 
     name upperback
     direction -0.00887249 0.992297 0.123566   
     length 1.71504   
     axis 0 0 0   XYZ
    dof rx ry rz
    limits (-20.0 45.0)
           (-30.0 30.0)
           (-30.0 30.0)
  end
  begin
     id 13 
     name thorax
     direction -0.0157026 0.998908 0.0440032   
     length 1.77022   
     axis 0 0 0   XYZ
    dof rx ry rz
    limits (-20.0 45.0)
           (-30.0 30.0)
           (-30.0 30.0)
  end
  begin
     id 14 
     name lowerneck
     direction -0.0238856 0.998137 0.0561411   
     length 1.89341   
     axis 0 0 0   XYZ
    dof rx ry rz
    limits (-20.0 45.0)
           (-30.0 30.0)
           (-30.0 30.0)
  end
  begin
     id 15 
     name upperneck
     direction 0.0276574 0.952253 -0.304056   
     length 1.86999   
     axis 0 0 0   XYZ
    dof rx ry rz
    limits (-20.0 45.0)
           (-30.0 30.0)
           (-30.0 30.0)
  end
  begin
     id 16
     name head
     direction 0.00800083 0.994258 -0.106712  
     length 1.91492  
     axis 0 0 0   XYZ
    dof rx ry rz
    limits (-20.0 45.0)
           (-30.0 30.0)
           (-30.0 30.0)
  end
  begin
     id 17 
     name lclavicle
     direction 0.97203 0.225407 0.06595  
     length 3.34889  
     axis 0 0 0   XYZ
    dof ry rz
    limits (-20.0 10.0)
           (0.0 20.0)
  end
  begin
     id 18 
     name lhumerus
     direction 1 -4.48973e-011 2.20267e-027   
     length 4.85645   
     axis 180 -30 -90   XYZ
    dof rx ry rz
    limits (-60.0 90.0)
           (-90.0 90.0)
           (-90.0 90.0)
  end
  begin
     id 19
     name lradius
     direction 1 -4.4897e-011 4.60472e-027   
     length 2.79874   
     axis 180 -30 -90   XYZ
    dof rx
    limits (-10.0 170.0)
  end
  begin
     id 20
     name lwrist
     direction 1 -4.48952e-011 1.14928e-026   
     length 1.39937   
     axis -6.29373e-015 90 90   XYZ
    dof ry
    limits (-180.0 0.0)
 end
  begin
     id 21 
     name lhand
     direction 1 -4.48967e-011 2.29886e-026   
     length 0.573398   
     axis -1.46689e-014 90 90   XYZ
    dof rx rz
    limits (-90.0 90.0)
           (-45.0 45.0)
  end
  begin
     id 22 
     name lfingers
     direction 1 -4.48955e-011 4.59726e-026   
     length 0.462289   
     axis -2.93383e-014 90 90   XYZ
    dof rx
    limits (0.0 90.0)
  end
  begin
     id 23
     name lthumb
     direction 0.707107 -6.34866e-011 0.707107   
     length 0.663757   
     axis -90 45 5.69224e-014   XYZ
    dof rx rz
    limits (-45.0 45.0)
           (-45.0 45.0)
  end
  begin
     id 24 
     name rclavicle
     direction -0.981571 0.157346 0.108443   
     length 3.35257  
     axis 0 0 0   XYZ 
    dof ry rz
    limits (-10.0 20.0)
           (-20.0 0.0)
  end
  begin
     id 25 
     name rhumerus
     direction -1 -4.48967e-011 8.58308e-029  
     length 4.67018   
     axis 180 30 90   XYZ
    dof rx ry rz
    limits (-90.0 60.0)
           (-90.0 90.0)
           (-90.0 90.0)
  end
  begin
     id 26 
     name rradius
     direction -1 -4.48958e-011 4.52548e-027   
     length 2.65534   
     axis 180 30 90   XYZ
    dof rx
    limits (-10.0 170.0)
  end
  begin
     id 27 
     name rwrist
     direction -1 -4.48977e-011 1.14952e-026   
     length 1.32767   
     axis -6.29373e-015 -90 -90   XYZ
    dof ry
    limits (-180.0 0.0)
  end
  begin
     id 28
     name rhand
     direction -1 -4.48924e-011 2.29804e-026   
     length 0.594069   
     axis -1.46689e-014 -90 -90   XYZ
    dof rx rz
    limits (-90.0 90.0)
           (-45.0 45.0)
  end
  begin
     id 29
     name rfingers
     direction -1 -4.48998e-011 4.59888e-026   
     length 0.478954   
     axis -2.93383e-014 -90 -90   XYZ
    dof rx
    limits (0.0 90.0)
  end
  begin
     id 30
     name rthumb
     direction -0.707107 -6.34933e-011 0.707107   
     length 0.687685   
     axis -90 -45 -5.69224e-014   XYZ
    dof rx rz
    limits (-45.0 45.0)
           (-45.0 45.0)
  end
:hierarchy
  begin
    root lhipjoint rhipjoint lowerback
    lhipjoint lfemur
    lfemur ltibia
    ltibia lfoot
    lfoot ltoes
    rhipjoint rfemur
    rfemur rtibia
    rtibia rfoot
    rfoot rtoes
    lowerback upperback
    upperback thorax
    thorax lowerneck lclavicle rclavicle
    lowerneck upperneck
    upperneck head
    lclavicle lhumerus
    lhumerus lradius
    lradius lwrist
    lwrist lhand lthumb
    lhand lfingers
    rclavicle rhumerus
    rhumerus rradius
    rradius rwrist
    rwrist rhand rthumb
    rhand rfingers
  end

#!OML:ASF E:\pregnant2\Project 1\Capture day 1\Session 1\pregnant2.ASF
:FULLY-SPECIFIED
:DEGREES
246
root 3.97111 17.1756 44.5724 30.3536 26.5006 -1.1659
lowerback -21.2689 6.12767 1.20555
upperback -15.5193 8.27962 -5.97032
thorax -4.1762 4.06583 -5.65846
lowerneck -11.9484 8.36259 10.6938
upperneck 28.4794 8.29914 5.51513
head 11.5889 5.72377 1.41874
rclavicle -4.4329e-014 1.11319e-014
rhumerus -22.5926 39.2421 -84.7201
rradius 39.6041
rwrist 3.38367
rhand -13.7902 -14.1499
rfingers 7.12502
rthumb 12.3314 -43.7663
lclavicle -4.4329e-014 1.11319e-014
lhumerus -51.7615 -8.24869 52.3459
lradius 43.3381
lwrist 4.3845
lhand -9.94947 23.6251
lfingers 7.12502
lthumb 16.0323 52.9818
rfemur -34.0514 11.2217 18.2996
rtibia 17.3538
rfoot -13.8985 -23.8045
rtoes 2.91427
lfemur -41.2375 -17.9747 -10.6026
ltibia 20.7576
lfoot -6.8976 11.1137
ltoes -19.644
247
root 3.96713 17.175 44.5763 30.3095 26.7097 -1.15748
lowerback -21.2683 6.17453 1.16621
upperback -15.545 8.35153 -6.00524
thorax -4.19824 4.10571 -5.6629
lowerneck -11.9741 8.2178 10.5502
upperneck 28.5198 8.09251 5.62748
head 11.5904 5.63366 1.45461
rclavicle -1.11319e-014 2.54444e-014
rhumerus -21.8044 40.5305 -84.6228
rradius 40.1735
rwrist 3.25298
rhand -13.7372 -14.129
rfingers 7.12502
rthumb 12.3825 -43.7423
lclavicle -1.11319e-014 2.54444e-014
lhumerus -51.9892 -8.08358 51.4138
lradius 43.3134
lwrist 4.5151
lhand -9.97087 23.6779
lfingers 7.12502
lthumb 16.0117 53.0362
rfemur -33.9501 11.1846 18.3701
rtibia 17.3353
rfoot -13.9738 -23.9303
rtoes 3.02058
lfemur -41.2208 -18.024 -10.5664
ltibia 20.7656
lfoot -6.93381 10.9782
ltoes -19.6959
248
root 3.96343 17.1745 44.5801 30.2582 26.926 -1.1549
lowerback -21.2682 6.21607 1.13749
upperback -15.5676 8.41469 -6.03098
thorax -4.21737 4.1407 -5.66468
lowerneck -11.9989 8.07745 10.3975
upperneck 28.5687 7.89153 5.75034
head 11.5948 5.54677 1.4971
rclavicle -7.95139e-015 -3.02153e-014
rhumerus -20.9715 41.8381 -84.492
rradius 40.741
rwrist 3.14549
rhand -13.687 -14.0995
rfingers 7.12502
rthumb 12.4309 -43.7099
lclavicle -7.95139e-015 -3.02153e-014
lhumerus -52.2195 -7.88239 50.4546
lradius 43.2865
lwrist 4.6202
lhand -9.97855 23.7069
lfingers 7.12502
lthumb 16.0043 53.0658
rfemur -33.839 11.1322 18.4549
rtibia 17.3107
rfoot -14.0426 -24.045
rtoes 3.11426
lfemur -41.2018 -18.0819 -10.521
ltibia 20.7789
lfoot -6.9752 10.8467
ltoes -19.7342
249
root 3.96 17.1741 44.5833 30.2046 27.1535 -1.15373
lowerback -21.2707 6.25758 1.12166
upperback -15.5861 8.47586 -6.05485
thorax -4.22944 4.17391 -5.6712
lowerneck -12.0265 7.93632 10.2342
upperneck 28.6224 7.68896 5.88207
head 11.6011 5.45936 1.54483
rclavicle -9.40251e-014 4.29375e-014
rhumerus -20.0919 43.1642 -84.3168
rradius 41.3133
rwrist 3.02679
rhand -13.6509 -14.0728
rfingers 7.12502
rthumb 12.4657 -43.681
lclavicle -9.40251e-014 4.29375e-014
lhumerus -52.4409 -7.67695 49.4849
lradius 43.2612
lwrist 4.72294
lhand -9.9688 23.7207
lfingers 7.12502
lthumb 16.0137 53.0788
rfemur -33.7247 11.0553 18.552
rtibia 17.2842
rfoot -14.1074 -24.1458
rtoes 3.20281
lfemur -41.1879 -18.1467 -10.4716
ltibia 20.7967
lfoot -7.0149 10.7135
ltoes -19.7826
250
root 3.95726 17.174 44.5856 30.145 27.4061 -1.16102
lowerback -21.2653 6.30459 1.1417
upperback -15.6013 8.53879 -6.08295
thorax -4.23605 4.20524 -5.70196
lowerneck -12.0615 7.79897 10.0581
upperneck 28.6751 7.48955 6.02931
head 11.608 5.37394 1.60123
rclavicle 5.82439e-014 1.27222e-014
rhumerus -19.1606 44.4878 -84.0914
rradius 41.8893
rwrist 2.89736
rhand -13.6285 -14.0552
rfingers 7.12502
rthumb 12.4873 -43.6621
lclavicle 5.82439e-014 1.27222e-014
lhumerus -52.6282 -7.4526 48.4886
lradius 43.2163
lwrist 4.7965
lhand -9.93433 23.7274
lfingers 7.12502
lthumb 16.0469 53.0829
rfemur -33.605 10.9315 18.6788
rtibia 17.261
rfoot -14.1726 -24.2174
rtoes 3.27816
lfemur -41.1775 -18.2207 -10.4106
ltibia 20.817
lfoot -7.05652 10.5682
ltoes -19.8267
251
root 3.95406 17.1736 44.588 30.0909 27.6596 -1.16662
lowerback -21.2696 6.34951 1.15226
upperback -15.6149 8.60054 -6.11061
thorax -4.23752 4.23686 -5.72608
lowerneck -12.0958 7.6636 9.88408
upperneck 28.7281 7.29226 6.17796
head 11.6156 5.2899 1.65838
rclavicle -9.14409e-014 -5.08889e-014
rhumerus -18.1737 45.8162 -83.8144
rradius 42.4662
rwrist 2.76639
rhand -13.6062 -14.0368
rfingers 7.12502
rthumb 12.5088 -43.6424
lclavicle -9.14409e-014 -5.08889e-014
lhumerus -52.7927 -7.21123 47.4734
lradius 43.161
lwrist 4.87271
lhand -9.93156 23.7824
lfingers 7.12502
lthumb 16.0496 53.1376
rfemur -33.4984 10.8224 18.7968
rtibia 17.2473
rfoot -14.2509 -24.3023
rtoes 3.38684
lfemur -41.1758 -18.2932 -10.3483
ltibia 20.8365
lfoot -7.09021 10.4217
ltoes -19.9049
252
root 3.95029 17.1729 44.5912 30.0486 27.9054 -1.15827
lowerback -21.277 6.39522 1.13643
upperback -15.6335 8.66767 -6.14561
thorax -4.24475 4.27294 -5.7428
lowerneck -12.1316 7.52517 9.70311
upperneck 28.7844 7.08893 6.33853
head 11.6247 5.20418 1.72065
rclavicle -8.98507e-014 3.81667e-014
rhumerus -17.1452 47.1226 -83.4913
rradius 43.0442
rwrist 2.64455
rhand -13.5705 -14.0164
rfingers 7.12502
rthumb 12.5432 -43.6199
lclavicle -8.98507e-014 3.81667e-014
lhumerus -52.9098 -6.91831 46.402
lradius 43.059
lwrist 4.89533
lhand -9.90237 23.7774
lfingers 7.12502
lthumb 16.0777 53.1304
rfemur -33.4074 10.737 18.8892
rtibia 17.2478
rfoot -14.3437 -24.4086
rtoes 3.51143
lfemur -41.1784 -18.3645 -10.2974
ltibia 20.8542
lfoot -7.12159 10.2763
ltoes -19.9763
253
root 3.94578 17.1719 44.5946 30.0113 28.1478 -1.14246
lowerback -21.2856 6.43584 1.09925
upperback -15.6534 8.73151 -6.17895
thorax -4.25642 4.30901 -5.74678
lowerneck -12.1701 7.389 9.51394
upperneck 28.8499 6.88719 6.51084
head 11.6379 5.12024 1.78963
rclavicle -6.95746e-015 1.90833e-014
rhumerus -16.0589 48.4198 -83.1138
rradius 43.6204
rwrist 2.54164
rhand -13.5084 -13.9863
rfingers 7.12502
rthumb 12.6031 -43.5861
lclavicle -6.95746e-015 1.90833e-014
lhumerus -52.9996 -6.58581 45.293
lradius 42.9291
lwrist 4.89427
lhand -9.89261 23.8028
lfingers 7.12502
lthumb 16.0871 53.1551
rfemur -33.3297 10.6782 18.9633
rtibia 17.2653
rfoot -14.453 -24.5382
rtoes 3.65992
lfemur -41.1823 -18.4367 -10.2493
ltibia 20.8672
lfoot -7.14992 10.132
ltoes -20.0331
254
root 3.94023 17.1702 44.599 29.9831 28.3746 -1.11721
lowerback -21.2977 6.47587 1.02774
upperback -15.678 8.80005 -6.21401
thorax -4.27551 4.34999 -5.73313
lowerneck -12.2294 7.23844 9.31457
upperneck 28.9433 6.6609 6.69333
head 11.666 5.02687 1.86326
rclavicle -4.19436e-014 1.11319e-014
rhumerus -14.9193 49.692 -82.682
rradius 44.1942
rwrist 2.45804
rhand -13.4275 -13.9399
rfingers 7.12502
rthumb 12.6811 -43.5349
lclavicle -4.19436e-014 1.11319e-014
lhumerus -53.0416 -6.18396 44.1182
lradius 42.7385
lwrist 4.79927
lhand -9.84914 23.743
lfingers 7.12502
lthumb 16.1289 53.0919
rfemur -33.2698 10.6666 19.0085
rtibia 17.2975
rfoot -14.5747 -24.7031
rtoes 3.82873
lfemur -41.1892 -18.5051 -10.2062
ltibia 20.8767
lfoot -7.17422 9.99579
ltoes -20.0802
255
root 3.93386 17.1683 44.6042 29.953 28.5936 -1.08777
lowerback -21.3109 6.51046 0.930108
upperback -15.6983 8.86541 -6.2409
thorax -4.29428 4.39171 -5.69657
lowerneck -12.3205 7.08034 9.09551
upperneck 29.0661 6.41974 6.88816
head 11.7116 4.9277 1.94585
rclavicle -1.35174e-013 -4.13472e-014
rhumerus -13.6997 50.9592 -82.1702
rradius 44.7704
rwrist 2.38737
rhand -13.3186 -13.8803
rfingers 7.12502
rthumb 12.7861 -43.4687
lclavicle -1.35174e-013 -4.13472e-014
lhumerus -53.0591 -5.73952 42.9226
lradius 42.5233
lwrist 4.69308
lhand -9.83929 23.6933
lfingers 7.12502
lthumb 16.1384 53.0414
rfemur -33.211 10.6871 19.0402
rtibia 17.3388
rfoot -14.7066 -24.8922
rtoes 4.01107
lfemur -41.1892 -18.571 -10.1671
ltibia 20.8844
lfoot -7.19776 9.86405
ltoes -20.1203
256
root 3.92745 17.1662 44.6096 29.9248 28.8151 -1.0586
lowerback -21.3305 6.54317 0.829619
upperback -15.7147 8.92878 -6.26269
thorax -4.30708 4.43299 -5.6523
lowerneck -12.4395 6.91078 8.8619
upperneck 29.215 6.15853 7.09137
head 11.7732 4.82038 2.03411
rclavicle 7.27552e-014 -1.43125e-014
rhumerus -12.3892 52.2122 -81.5706
rradius 45.3435
rwrist 2.33478
rhand -13.1787 -13.7855
rfingers 7.12502
rthumb 12.9209 -43.3655
lclavicle 7.27552e-014 -1.43125e-014
lhumerus -53.0559 -5.26843 41.7193
lradius 42.291
lwrist 4.59599
lhand -9.87886 23.6701
lfingers 7.12502
lthumb 16.1003 53.0212
rfemur -33.1551 10.7093 19.0723
rtibia 17.3821
rfoot -14.8374 -25.0832
rtoes 4.18976
lfemur -41.192 -18.6425 -10.122
ltibia 20.8918
lfoot -7.22484 9.73487
ltoes -20.136
257
root 3.92102 17.1641 44.6151 29.8997 29.0456 -1.0319
lowerback -21.3558 6.57579 0.733178
upperback -15.7294 8.99161 -6.28255
thorax -4.31523 4.47392 -5.60749
lowerneck -12.5707 6.73551 8.61862
upperneck 29.3754 5.88804 7.29966
head 11.8428 4.70921 2.12613
rclavicle -3.20043e-014 2.22639e-014
rhumerus -10.9803 53.4432 -80.874
rradius 45.9134
rwrist 2.2955
rhand -12.9865 -13.6473
rfingers 7.12502
rthumb 13.1062 -43.2154
lclavicle -3.20043e-014 2.22639e-014
lhumerus -53.0406 -4.80927 40.5313
lradius 42.0593
lwrist 4.54797
lhand -9.97021 23.6845
lfingers 7.12502
lthumb 16.0123 53.0428
rfemur -33.1003 10.7242 19.1113
rtibia 17.4217
rfoot -14.9673 -25.2733
rtoes 4.36681
lfemur -41.2045 -18.7157 -10.0701
ltibia 20.8999
lfoot -7.25169 9.60061
ltoes -20.1649
258
root 3.91563 17.1622 44.62 29.8646 29.3045 -1.01929
lowerback -21.377 6.61081 0.678324
upperback -15.7425 9.05124 -6.30158
thorax -4.31838 4.51016 -5.5853
lowerneck -12.7009 6.5589 8.37634
upperneck 29.541 5.61564 7.50722
head 11.9161 4.59764 2.21823
rclavicle -6.10269e-014 -3.18055e-014
rhumerus -9.47791 54.6555 -80.0893
rradius 46.4834
rwrist 2.27405
rhand -12.7764 -13.4803
rfingers 7.12502
rthumb 13.3087 -43.0354
lclavicle -6.10269e-014 -3.18055e-014
lhumerus -53.0157 -4.36141 39.3513
lradius 41.8235
lwrist 4.55986
lhand -10.1006 23.7188
lfingers 7.12502
lthumb 15.8867 53.0871
rfemur -33.0307 10.6828 19.191
rtibia 17.4558
rfoot -15.0928 -25.4257
rtoes 4.52513
lfemur -41.2219 -18.8009 -9.99954
ltibia 20.9081
lfoot -7.27513 9.45614
ltoes -20.1935
